<svg width="196" height="53" viewBox="0 0 196 53" fill="none" xmlns="http://www.w3.org/2000/svg">
<path d="M0 52.2947V0.705324H10.9578V43.3018H33.177V52.2947H0Z" fill="black"/>
<path d="M86.0426 26.5C86.0426 32.1258 84.9713 36.9119 82.8287 40.8584C80.7029 44.8048 77.8011 47.8192 74.1232 49.9016C70.4622 51.9672 66.3456 53 61.7735 53C57.1677 53 53.0343 51.9588 49.3733 49.8764C45.7122 47.794 42.8189 44.7796 40.6931 40.8332C38.5673 36.8867 37.5045 32.109 37.5045 26.5C37.5045 20.8742 38.5673 16.0881 40.6931 12.1416C42.8189 8.19518 45.7122 5.18916 49.3733 3.12358C53.0343 1.04119 57.1677 0 61.7735 0C66.3456 0 70.4622 1.04119 74.1232 3.12358C77.8011 5.18916 80.7029 8.19518 82.8287 12.1416C84.9713 16.0881 86.0426 20.8742 86.0426 26.5ZM74.933 26.5C74.933 22.8558 74.3847 19.7826 73.2881 17.2804C72.2083 14.7782 70.6815 12.8805 68.7076 11.5875C66.7336 10.2944 64.4223 9.64782 61.7735 9.64782C59.1248 9.64782 56.8134 10.2944 54.8395 11.5875C52.8656 12.8805 51.3303 14.7782 50.2337 17.2804C49.154 19.7826 48.6141 22.8558 48.6141 26.5C48.6141 30.1442 49.154 33.2174 50.2337 35.7196C51.3303 38.2218 52.8656 40.1195 54.8395 41.4125C56.8134 42.7056 59.1248 43.3522 61.7735 43.3522C64.4223 43.3522 66.7336 42.7056 68.7076 41.4125C70.6815 40.1195 72.2083 38.2218 73.2881 35.7196C74.3847 33.2174 74.933 30.1442 74.933 26.5Z" fill="black"/>
<path d="M128.526 17.3812C128.172 16.1553 127.674 15.0721 127.033 14.1317C126.392 13.1744 125.607 12.3683 124.68 11.7134C123.768 11.0417 122.722 10.5295 121.542 10.1768C120.377 9.82415 119.087 9.64782 117.67 9.64782C115.021 9.64782 112.693 10.3028 110.685 11.6126C108.694 12.9225 107.142 14.8286 106.029 17.3308C104.915 19.8162 104.358 22.8558 104.358 26.4496C104.358 30.0434 104.907 33.0998 106.003 35.6188C107.1 38.1378 108.652 40.0607 110.66 41.3874C112.667 42.6972 115.038 43.3522 117.771 43.3522C120.251 43.3522 122.368 42.9156 124.123 42.0423C125.894 41.1523 127.244 39.9011 128.172 38.289C129.117 36.6768 129.589 34.7708 129.589 32.5708L131.816 32.8983H118.454V24.6863H140.142V31.1854C140.142 35.7196 139.18 39.6157 137.257 42.8736C135.334 46.1147 132.685 48.6169 129.311 50.3802C125.936 52.1267 122.073 53 117.72 53C112.861 53 108.593 51.9336 104.915 49.8009C101.237 47.6513 98.3691 44.6033 96.3108 40.6568C94.2694 36.6936 93.2487 31.9914 93.2487 26.5504C93.2487 22.3688 93.856 18.6407 95.0708 15.366C96.3024 12.0745 98.0232 9.28676 100.233 7.00285C102.443 4.71895 105.016 2.98083 107.952 1.7885C110.887 0.596166 114.068 0 117.492 0C120.428 0 123.161 0.428232 125.692 1.2847C128.222 2.12437 130.466 3.3167 132.423 4.86169C134.397 6.40669 136.008 8.24556 137.257 10.3783C138.505 12.4943 139.307 14.8286 139.661 17.3812H128.526Z" fill="black"/>
<path d="M196 26.5C196 32.1258 194.929 36.9119 192.786 40.8584C190.66 44.8048 187.758 47.8192 184.081 49.9016C180.42 51.9672 176.303 53 171.731 53C167.125 53 162.992 51.9588 159.331 49.8764C155.67 47.794 152.776 44.7796 150.65 40.8332C148.525 36.8867 147.462 32.109 147.462 26.5C147.462 20.8742 148.525 16.0881 150.65 12.1416C152.776 8.19518 155.67 5.18916 159.331 3.12358C162.992 1.04119 167.125 0 171.731 0C176.303 0 180.42 1.04119 184.081 3.12358C187.758 5.18916 190.66 8.19518 192.786 12.1416C194.929 16.0881 196 20.8742 196 26.5ZM184.89 26.5C184.89 22.8558 184.342 19.7826 183.245 17.2804C182.166 14.7782 180.639 12.8805 178.665 11.5875C176.691 10.2944 174.38 9.64782 171.731 9.64782C169.082 9.64782 166.771 10.2944 164.797 11.5875C162.823 12.8805 161.288 14.7782 160.191 17.2804C159.111 19.7826 158.571 22.8558 158.571 26.5C158.571 30.1442 159.111 33.2174 160.191 35.7196C161.288 38.2218 162.823 40.1195 164.797 41.4125C166.771 42.7056 169.082 43.3522 171.731 43.3522C174.38 43.3522 176.691 42.7056 178.665 41.4125C180.639 40.1195 182.166 38.2218 183.245 35.7196C184.342 33.2174 184.89 30.1442 184.89 26.5Z" fill="black"/>
</svg>
